# xmcd CD database file
#
# Track frame offsets:
#	150
#	10263
#	27354
#	46720
#	65698
#	79604
#	93035
#	113043
#	126959
#	146525
#	165616
#	189431
#
# Disc length: 2741 seconds
#
# Revision: 0
# Processed by: cddbd v1.5.2PL0 Copyright (c) Steve Scherf et al.
# Submitted via: CDex 1.51
#
DISCID=910ab30c
DTITLE=Mike Clark - Saxman
DYEAR=1900
DGENRE=Jazz
TTITLE0=Flatfoot Sam
TTITLE1=Kidney Stew
TTITLE2=Down Where The River Meets The Sea
TTITLE3=Saxman
TTITLE4=Things Ain't What They Used To Be
TTITLE5=Mr. MPC
TTITLE6=Standin' On Shaky Ground
TTITLE7=Huggy Drunk
TTITLE8=Old Black Dog
TTITLE9=God Blind Me
TTITLE10=Since I Met You Baby
TTITLE11=Divine Inspiration
EXTD=
EXTT0=
EXTT1=
EXTT2=
EXTT3=
EXTT4=
EXTT5=
EXTT6=
EXTT7=
EXTT8=
EXTT9=
EXTT10=
EXTT11=
PLAYORDER=
